<?xml version="1.0" encoding="UTF-8" standalone="no"?>
<svg
   width="1600"
   height="900"
   viewBox="0 0 1600 900"
   version="1.1"
   id="svg13"
   xmlns="http://www.w3.org/2000/svg"
   xmlns:svg="http://www.w3.org/2000/svg">
  <defs
     id="defs7">
    <linearGradient
       id="bg"
       x1="0"
       y1="0"
       x2="1"
       y2="1">
      <stop
         offset="0"
         stop-color="#020817"
         id="stop1" />
      <stop
         offset="1"
         stop-color="#071426"
         id="stop2" />
    </linearGradient>
    <linearGradient
       id="blueGreen"
       x1="150"
       y1="0"
       x2="900"
       y2="0"
       gradientUnits="userSpaceOnUse">
      <stop
         offset="0"
         stop-color="#2563EB"
         id="stop3" />
      <stop
         offset="0.50"
         stop-color="#38BDF8"
         id="stop4" />
      <stop
         offset="1"
         stop-color="#10B981"
         id="stop5" />
    </linearGradient>
    <linearGradient
       id="whiteGrad"
       x1="0"
       y1="0"
       x2="0"
       y2="1">
      <stop
         offset="0"
         stop-color="#FFFFFF"
         id="stop6" />
      <stop
         offset="1"
         stop-color="#E5E7EB"
         id="stop7" />
    </linearGradient>
  </defs>
  <path
     id="background"
     style="fill:url(#bg)"
     d="M 0,0 H 1600 V 900 H 0 Z" />
  <g
     id="GOIA"
     transform="translate(165,250)">
    <path
       d="m 122.00195,228.06152 q 17.40723,0 33.75489,-4.99511 16.34765,-5.14649 25.27832,-13.01758 v -29.5166 h -52.07032 v -32.99805 h 92.93946 v 78.4082 q -16.95313,17.40723 -44.19922,27.2461 -27.09473,9.83886 -56.91406,9.83886 -52.070317,0 -80.073247,-28.75976 -28.002929,-28.91113 -28.002929,-81.88965 0,-52.675782 28.154297,-80.678711 28.154296,-28.154297 80.981449,-28.154297 75.07812,0 95.51269,55.551758 l -41.17187,12.41211 q -6.66016,-16.19629 -20.88868,-24.521485 -14.22851,-8.325196 -33.45214,-8.325196 -31.484379,0 -47.832035,19.072266 -16.347657,19.072265 -16.347657,54.643555 0,36.17676 16.801758,56.00586 16.953125,19.67773 47.529294,19.67773 z"
       id="text7"
       style="font-weight:700;font-size:310px;font-family:Arimo, Arial, Helvetica, sans-serif;letter-spacing:-8;fill:url(#blueGreen)"
       aria-label="G" />
    <path
       d="m 618.11035,152.37793 q 0,33.30078 -13.16894,58.5791 -13.16895,25.27832 -37.69043,38.75 -24.52149,13.32031 -57.2168,13.32031 -50.25391,0 -78.86231,-29.5166 -28.45703,-29.66797 -28.45703,-81.13281 0,-51.31348 28.45703,-80.073243 28.45704,-28.759765 79.16504,-28.759765 50.70801,0 79.16504,29.0625 28.6084,29.062498 28.6084,79.770508 z m -45.56152,0 q 0,-34.51172 -16.34766,-54.038086 -16.34765,-19.677735 -45.86426,-19.677735 -29.9707,0 -46.31836,19.526368 -16.34765,19.375003 -16.34765,54.189453 0,35.11719 16.65039,55.40039 16.80176,20.13184 45.71289,20.13184 29.9707,0 46.16699,-19.67774 16.34766,-19.67773 16.34766,-55.85449 z"
       id="text8"
       style="font-weight:700;font-size:310px;font-family:Arimo, Arial, Helvetica, sans-serif;letter-spacing:-8;fill:url(#blueGreen)"
       aria-label="O" />
    <path
       d="M 740.7373,260 V 46.723633 h 44.65332 V 260 Z"
       id="text9"
       style="font-weight:700;font-size:310px;font-family:Arimo, Arial, Helvetica, sans-serif;letter-spacing:-8;fill:url(#whiteGrad)"
       aria-label="I" />
    <path
       d="m 996.49902,260 -18.9209,-54.49219 H 896.29395 L 877.37305,260 H 832.71973 L 910.52246,46.723633 h 52.67578 L 1040.6982,260 Z m -28.91113,-88.0957 -21.04004,-61.30371 -9.6875,-31.030278 q -2.42187,8.779297 -4.54101,15.742188 -2.11914,6.96289 -26.03516,76.5918 z"
       id="text10"
       style="font-weight:700;font-size:310px;font-family:Arimo, Arial, Helvetica, sans-serif;letter-spacing:-8;fill:url(#whiteGrad)"
       aria-label="A" />
    <path
       id="circle10"
       style="fill:#10b981"
       d="m 1073,215 a 25,25 0 0 1 -25,25 25,25 0 0 1 -25,-25 25,25 0 0 1 25,-25 25,25 0 0 1 25,25 z" />
    <path
       d="M632 20 L665 20 L641 92 L608 92 Z"
       fill="#071426"
       opacity="0.95"
       id="path10" />
  </g>
  <g
     id="tagline"
     font-family="Arimo, Arial, Helvetica, sans-serif"
     font-size="34"
     font-weight="700"
     letter-spacing="7">
    <path
       d="m 257.27441,655 v -23.3916 h 4.89746 V 655 Z m 30.69043,0 -10.19336,-18.0127 q 0.29883,2.62305 0.29883,4.2168 V 655 h -4.34961 v -23.3916 h 5.59473 l 10.34277,18.16211 q -0.29883,-2.50684 -0.29883,-4.56543 V 631.6084 h 4.34961 V 655 Z m 27.86817,-19.60645 V 655 h -4.89746 v -19.60645 h -7.55371 v -3.78515 h 20.02148 v 3.78515 z M 333.04297,655 v -23.3916 h 18.39453 v 3.78515 h -13.49707 v 5.87696 h 12.48437 v 3.78515 h -12.48437 v 6.15918 h 14.17773 V 655 Z m 29.67773,0 v -23.3916 h 4.89746 v 19.60644 h 12.55079 V 655 Z m 27.76856,0 v -23.3916 h 4.89746 V 655 Z m 27.55273,-3.50293 q 1.90918,0 3.70215,-0.54785 1.79297,-0.56445 2.77246,-1.42774 v -3.2373 h -5.71094 v -3.61914 h 10.19336 v 8.59961 q -1.85937,1.90918 -4.84765,2.98828 -2.97168,1.0791 -6.24219,1.0791 -5.71094,0 -8.78223,-3.1543 -3.07129,-3.17089 -3.07129,-8.98144 0,-5.77734 3.08789,-8.84863 3.0879,-3.08789 8.88184,-3.08789 8.23438,0 10.47559,6.09277 l -4.51563,1.36133 q -0.73047,-1.77637 -2.29101,-2.68946 -1.56055,-0.91308 -3.66895,-0.91308 -3.45312,0 -5.24609,2.09179 -1.79297,2.0918 -1.79297,5.99317 0,3.96777 1.84277,6.14258 1.85938,2.1582 5.21289,2.1582 z M 440.38184,655 v -23.3916 h 18.39453 v 3.78515 H 445.2793 v 5.87696 h 12.48437 v 3.78515 H 445.2793 v 6.15918 h 14.17773 V 655 Z m 15.67187,-25.88184 v 0.48145 h -2.63965 l -3.37011,-2.50684 h -0.0664 l -3.50293,2.50684 h -2.65625 v -0.48145 l 4.2832,-4.58203 h 3.80176 z M 484.30371,655 474.11035,636.9873 q 0.29883,2.62305 0.29883,4.2168 V 655 h -4.34961 v -23.3916 h 5.59473 l 10.34277,18.16211 q -0.29883,-2.50684 -0.29883,-4.56543 V 631.6084 h 4.34961 V 655 Z m 28.2334,-3.51953 q 4.43262,0 6.15918,-4.44922 l 4.2666,1.61035 q -1.37793,3.38672 -4.05078,5.04688 -2.65625,1.64355 -6.375,1.64355 -5.64453,0 -8.73242,-3.1875 -3.07129,-3.2041 -3.07129,-8.94824 0,-5.76074 2.97168,-8.84863 2.97168,-3.08789 8.61621,-3.08789 4.11719,0 6.70703,1.66015 2.58984,1.64356 3.63574,4.84766 l -4.3164,1.17871 q -0.54786,-1.75977 -2.15821,-2.78906 -1.59375,-1.0459 -3.76855,-1.0459 -3.32031,0 -5.04688,2.05859 -1.70996,2.0586 -1.70996,6.02637 0,4.03418 1.75977,6.15918 1.77637,2.125 5.11328,2.125 z M 533.16699,655 v -23.3916 h 4.89746 V 655 Z m 32.98145,0 -2.0752,-5.97656 H 555.1582 L 553.08301,655 h -4.89746 l 8.5332,-23.3916 h 5.77734 l 8.5,23.3916 z m -3.1709,-9.66211 -2.30762,-6.72363 -1.0625,-3.40332 q -0.26562,0.96289 -0.49805,1.72656 -0.23242,0.76367 -2.85546,8.40039 z m 56.11816,-2.1416 q 0,4.68164 -2.30761,7.80273 -2.29102,3.1045 -6.39161,3.93457 0.56446,1.64356 1.57715,2.37403 1.0293,0.73047 2.87207,0.73047 0.9795,0 1.97559,-0.16602 l -0.0332,3.35352 q -2.0918,0.46484 -4.01758,0.46484 -2.70606,0 -4.48242,-1.51074 -1.77637,-1.51074 -2.85547,-5.01367 -4.73145,-0.44825 -7.3545,-3.60254 -2.60644,-3.1709 -2.60644,-8.36719 0,-5.62793 3.12109,-8.78223 3.1211,-3.15429 8.68262,-3.15429 5.56152,0 8.68262,3.1875 3.13769,3.1875 3.13769,8.74902 z m -4.99707,0 q 0,-3.78516 -1.79297,-5.92676 -1.79296,-2.1582 -5.03027,-2.1582 -3.28711,0 -5.08008,2.1416 -1.79297,2.125 -1.79297,5.94336 0,3.85156 1.82618,6.07617 1.82617,2.22461 5.01367,2.22461 3.28711,0 5.06347,-2.1582 1.79297,-2.15821 1.79297,-6.14258 z m 25.42774,12.13574 q -4.83106,0 -7.4043,-2.35742 -2.55664,-2.35742 -2.55664,-6.74024 V 631.6084 h 4.89746 v 14.24414 q 0,2.77246 1.31152,4.2168 1.32813,1.42773 3.88477,1.42773 2.62305,0 4.03418,-1.49414 1.41113,-1.51074 1.41113,-4.31641 V 631.6084 h 4.89746 v 14.37695 q 0,4.44922 -2.75586,6.90625 -2.73925,2.44043 -7.71972,2.44043 z M 661.35156,655 v -23.3916 h 18.39453 v 3.78515 h -13.49707 v 5.87696 h 12.48438 v 3.78515 h -12.48438 v 6.15918 h 14.17774 V 655 Z"
       id="text11"
       style="fill:#f8fafc"
       aria-label="INTELIGÊNCIA QUE" />
    <path
       d="M 732.83301,635.39355 V 655 h -4.89746 v -19.60645 h -7.55371 v -3.78515 h 20.02148 v 3.78515 z M 766.11328,655 l -5.42871,-8.88184 h -5.74414 V 655 h -4.89746 v -23.3916 h 11.6875 q 4.18359,0 6.45801,1.80957 2.27441,1.79297 2.27441,5.16308 0,2.45704 -1.39453,4.25 -1.39453,1.77637 -3.76856,2.34082 L 771.625,655 Z m -0.58105,-16.21973 q 0,-3.37011 -4.31641,-3.37011 h -6.27539 v 6.90625 h 6.4082 q 2.0586,0 3.1211,-0.92969 1.0625,-0.92969 1.0625,-2.60645 z M 798.13184,655 l -2.0752,-5.97656 H 787.1416 L 785.06641,655 h -4.89746 l 8.5332,-23.3916 h 5.77734 l 8.5,23.3916 z m -3.1709,-9.66211 -2.30762,-6.72363 -1.0625,-3.40332 q -0.26562,0.96289 -0.49805,1.72656 -0.23242,0.76367 -2.85547,8.40039 z M 827.39453,655 817.20117,636.9873 Q 817.5,639.61035 817.5,641.2041 V 655 h -4.34961 v -23.3916 h 5.59473 l 10.34277,18.16211 q -0.29883,-2.50684 -0.29883,-4.56543 V 631.6084 h 4.34961 V 655 Z m 36.38477,-6.74023 q 0,3.43652 -2.55664,5.26269 -2.54004,1.80957 -7.47071,1.80957 -4.49902,0 -7.05566,-1.59375 -2.55664,-1.59375 -3.28711,-4.83105 l 4.73144,-0.78028 q 0.48145,1.85938 1.87598,2.70606 1.39453,0.83008 3.86817,0.83008 5.12988,0 5.12988,-3.1211 0,-0.99609 -0.59766,-1.64355 -0.58105,-0.64746 -1.66015,-1.0791 -1.0625,-0.43164 -4.10059,-1.0459 -2.62305,-0.61426 -3.65234,-0.97949 -1.0293,-0.38184 -1.85938,-0.87989 -0.83008,-0.51465 -1.41113,-1.22851 -0.58106,-0.71387 -0.91309,-1.67676 -0.31543,-0.96289 -0.31543,-2.20801 0,-3.1709 2.37403,-4.84766 2.39062,-1.69335 6.93945,-1.69335 4.34961,0 6.52441,1.36132 2.19141,1.36133 2.82227,4.49903 l -4.74805,0.64746 q -0.36523,-1.51074 -1.49414,-2.27442 -1.1123,-0.76367 -3.2041,-0.76367 -4.44922,0 -4.44922,2.78906 0,0.91309 0.46484,1.49415 0.48145,0.58105 1.41114,0.99609 0.92969,0.41504 3.76855,1.01269 3.37012,0.71387 4.81446,1.32813 1.46093,0.59766 2.30761,1.41113 0.84668,0.79688 1.29492,1.92578 0.44825,1.11231 0.44825,2.57325 z m 15.5,-12.86622 v 7.23829 h 11.96972 v 3.78515 H 879.2793 V 655 h -4.89746 v -23.3916 h 17.24902 v 3.78515 z m 45.61523,7.80274 q 0,3.65234 -1.44433,6.4248 -1.44434,2.77246 -4.13379,4.25 -2.68946,1.46094 -6.27539,1.46094 -5.51172,0 -8.64942,-3.2373 -3.12109,-3.25391 -3.12109,-8.89844 0,-5.62793 3.12109,-8.78223 3.1211,-3.15429 8.68262,-3.15429 5.56152,0 8.68262,3.1875 3.13769,3.1875 3.13769,8.74902 z m -4.99707,0 q 0,-3.78516 -1.79297,-5.92676 -1.79297,-2.1582 -5.03027,-2.1582 -3.28711,0 -5.08008,2.1416 -1.79297,2.125 -1.79297,5.94336 0,3.85156 1.82617,6.07617 1.84278,2.20801 5.01368,2.20801 3.2871,0 5.06347,-2.1582 1.79297,-2.15821 1.79297,-6.12598 z M 951.66699,655 l -5.42871,-8.88184 h -5.74414 V 655 h -4.89746 v -23.3916 h 11.6875 q 4.18359,0 6.45801,1.80957 2.27441,1.79297 2.27441,5.16308 0,2.45704 -1.39453,4.25 -1.39453,1.77637 -3.76855,2.34082 L 957.17871,655 Z m -0.58105,-16.21973 q 0,-3.37011 -4.31641,-3.37011 h -6.27539 v 6.90625 h 6.4082 q 2.0586,0 3.1211,-0.92969 1.0625,-0.92969 1.0625,-2.60645 z M 986.57422,655 v -14.17773 q 0,-0.48145 0,-0.9629 0.0166,-0.48144 0.16601,-4.13378 -1.17871,4.46582 -1.74316,6.22558 L 980.78027,655 h -3.48632 l -4.2168,-13.04883 -1.77637,-6.22558 Q 971.5,639.57715 971.5,640.82227 V 655 h -4.34961 v -23.3916 h 6.55762 l 4.18359,13.08203 1.16211,4.39941 1.0459,-3.75195 4.2998,-13.72949 h 6.52442 V 655 Z m 32.43358,0 -2.0752,-5.97656 h -8.915 L 1005.9424,655 h -4.8975 l 8.5332,-23.3916 h 5.7774 l 8.5,23.3916 z m -3.1709,-9.66211 -2.3076,-6.72363 -1.0625,-3.40332 q -0.2656,0.96289 -0.4981,1.72656 -0.2324,0.76367 -2.8554,8.40039 z"
       id="text12"
       style="fill:#10b981"
       aria-label="TRANSFORMA" />
    <path
       d="m 1097.1719,635.39355 v 7.23829 h 11.9697 v 3.78515 h -11.9697 V 655 h -4.8975 v -23.3916 h 17.249 v 3.78515 z M 1120.043,655 v -23.3916 h 4.8974 V 655 Z m 30.6904,0 -10.1934,-18.0127 q 0.2989,2.62305 0.2989,4.2168 V 655 h -4.3496 v -23.3916 h 5.5947 l 10.3428,18.16211 q -0.2989,-2.50684 -0.2989,-4.56543 V 631.6084 h 4.3496 V 655 Z m 33.8447,0 -2.0752,-5.97656 h -8.915 L 1171.5127,655 h -4.8975 l 8.5332,-23.3916 h 5.7774 l 8.5,23.3916 z m -3.1709,-9.66211 -2.3076,-6.72363 -1.0625,-3.40332 q -0.2656,0.96289 -0.498,1.72656 -0.2325,0.76367 -2.8555,8.40039 z M 1213.8408,655 1203.6475,636.9873 q 0.2988,2.62305 0.2988,4.2168 V 655 h -4.3496 v -23.3916 h 5.5947 l 10.3428,18.16211 q -0.2988,-2.50684 -0.2988,-4.56543 V 631.6084 h 4.3496 V 655 Z m 28.2334,-3.51953 q 4.4326,0 6.1592,-4.44922 l 4.2666,1.61035 q -1.3779,3.38672 -4.0508,5.04688 -2.6562,1.64355 -6.375,1.64355 -5.6445,0 -8.7324,-3.1875 -3.0713,-3.2041 -3.0713,-8.94824 0,-5.76074 2.9717,-8.84863 2.9717,-3.08789 8.6162,-3.08789 4.1172,0 6.707,1.66015 2.5899,1.64356 3.6358,4.84766 l -4.3164,1.17871 q -0.5479,-1.75977 -2.1582,-2.78906 -1.5938,-1.0459 -3.7686,-1.0459 -3.3203,0 -5.0469,2.05859 -1.7099,2.0586 -1.7099,6.02637 0,4.03418 1.7597,6.15918 1.7764,2.125 5.1133,2.125 z m 3.2207,7.4209 q 0,1.56054 -1.2949,2.35742 -1.2949,0.79687 -3.7354,0.79687 -0.747,0 -1.6767,-0.0996 v -1.95898 q 0.581,0.11621 1.3945,0.11621 2.2744,0 2.2744,-1.14551 0,-0.58105 -0.4648,-0.86328 -0.4649,-0.28222 -1.5606,-0.28222 -0.6308,0 -0.8632,0.0332 L 1240.3975,655 h 2.374 l -0.5479,1.36133 q 1.5606,0.083 2.3077,0.76367 0.7636,0.68066 0.7636,1.77637 z M 1279.2393,655 l -2.0752,-5.97656 h -8.9151 L 1266.1738,655 h -4.8974 l 8.5332,-23.3916 h 5.7773 l 8.5,23.3916 z m -3.1709,-9.66211 -2.3077,-6.72363 -1.0625,-3.40332 q -0.2656,0.96289 -0.498,1.72656 -0.2324,0.76367 -2.8555,8.40039 z m 37.2646,2.92188 q 0,3.43652 -2.5566,5.26269 -2.5401,1.80957 -7.4707,1.80957 -4.4991,0 -7.0557,-1.59375 -2.5566,-1.59375 -3.2871,-4.83105 l 4.7314,-0.78028 q 0.4815,1.85938 1.876,2.70606 1.3945,0.83008 3.8682,0.83008 5.1299,0 5.1299,-3.1211 0,-0.99609 -0.5977,-1.64355 -0.5811,-0.64746 -1.6602,-1.0791 -1.0625,-0.43164 -4.1005,-1.0459 -2.6231,-0.61426 -3.6524,-0.97949 -1.0293,-0.38184 -1.8594,-0.87989 -0.83,-0.51465 -1.4111,-1.22851 -0.581,-0.71387 -0.9131,-1.67676 -0.3154,-0.96289 -0.3154,-2.20801 0,-3.1709 2.374,-4.84766 2.3906,-1.69335 6.9395,-1.69335 4.3496,0 6.5244,1.36132 2.1914,1.36133 2.8223,4.49903 l -4.7481,0.64746 q -0.3652,-1.51074 -1.4941,-2.27442 -1.1123,-0.76367 -3.2041,-0.76367 -4.4493,0 -4.4493,2.78906 0,0.91309 0.4649,1.49415 0.4814,0.58105 1.4111,0.99609 0.9297,0.41504 3.7686,1.01269 3.3701,0.71387 4.8144,1.32813 1.461,0.59766 2.3076,1.41113 0.8467,0.79688 1.295,1.92578 0.4482,1.11231 0.4482,2.57325 z"
       id="text13"
       style="fill:#f8fafc"
       aria-label="FINANÇAS" />
  </g>
</svg>
